:SAMPLES-PER-SECOND 30
:FULLY-SPECIFIED
:DEGREES
233
root  -10.1421 40.8603 -8.02782 163.784 89.0087 164.817
RightUpLeg  3.69655 -10.2685 -7.04046
RightLeg  9.66639 -9.55829 0.993735
RightFoot  -6.72624 -0.024539 -0.525442
RightToes  0.00048216 0.542163 -0.142577
Spine  -0.152284 1.15335 -2.83413
Spine1  1.28557 1.11822 0.977674
HEad  14.3891 -3.79987 -0.994906
LeftShoulder1  1.42746 -4.2104 -11.2753
LeftArm  -16.5898 22.0158 -3.97467
LeftForeArm  25.052 -16.7631 -2.39737
LeftHand  -0.25398 0.0180481 5.50724
RightShoulder  0.758031 0.669938 10.9859
RightArm  -20.7703 -11.0574 4.38401
RightForeArm  1.14861 9.75925 3.33421
RightHand  -1.2677 3.2955 -17.1427
LeftUpLeg  7.8364 4.87053 -0.806969
LeftLeg  -0.483889 7.51583 -6.38948
LeftFoot  -6.96384 0.0925164 -1.32561
LeftToes  1.06245e-005 4.65856e-005 -8.18504e-006
234
root  -10.0611 40.8606 -7.98884 156.843 89.0128 157.941
RightUpLeg  4.07818 -9.95251 -6.99646
RightLeg  9.26556 -10.3652 1.04707
RightFoot  -6.94847 -0.00615536 -1.06618
RightToes  0.00048216 0.542163 -0.142577
Spine  -0.50824 1.04596 -3.00043
Spine1  1.08489 0.933587 1.47693
HEad  14.994 -3.37771 -1.15649
LeftShoulder1  1.16941 -3.6416 -8.9005
LeftArm  -16.2419 21.0662 -2.49221
LeftForeArm  24.9404 -17.5283 -2.59668
LeftHand  -0.25398 0.0180481 5.50724
RightShoulder  0.543625 -0.116884 8.62999
RightArm  -21.5477 -10.019 3.25914
RightForeArm  -0.542921 9.91934 3.34727
RightHand  -1.42291 3.82865 -18.0727
LeftUpLeg  8.06253 4.65053 -1.02904
LeftLeg  -0.668491 7.87247 -6.2324
LeftFoot  -6.68898 0.0720472 -0.791063
LeftToes  1.06245e-005 4.65856e-005 -8.18504e-006
235
root  -9.99946 40.8492 -7.95968 143.729 89.1257 144.879
RightUpLeg  4.40932 -9.79641 -7.13245
RightLeg  8.90166 -10.6207 1.21718
RightFoot  -7.14676 -0.0073841 -1.12012
RightToes  0.00048216 0.542163 -0.142577
Spine  -0.569399 0.970891 -3.09611
Spine1  0.767772 0.789498 1.93121
HEad  15.4045 -2.79696 -1.37868
LeftShoulder1  0.982227 -3.15265 -7.10422
LeftArm  -15.6008 20.0445 -1.32325
LeftForeArm  24.9595 -17.471 -2.68235
LeftHand  -0.25398 0.0180481 5.50724
RightShoulder  0.389002 -0.794701 6.72714
RightArm  -22.4371 -9.02022 2.59858
RightForeArm  -4.25147 10.0479 3.48052
RightHand  -1.83587 5.18139 -20.3183
LeftUpLeg  8.0066 4.24859 -1.50772
LeftLeg  -0.481528 8.86032 -5.88973
LeftFoot  -6.4974 0.0152917 0.566532
LeftToes  1.06245e-005 4.65856e-005 -8.18504e-006
236
root  -9.95675 40.8227 -7.94097 120.523 89.2668 121.754
RightUpLeg  4.6992 -9.80842 -7.43703
RightLeg  8.68133 -10.1933 1.45781
RightFoot  -7.39113 -0.0278938 -0.640237
RightToes  0.00048216 0.542163 -0.142577
Spine  -0.37969 1.02481 -3.00031
Spine1  0.470767 0.800677 2.23928
HEad  15.5213 -2.37061 -1.58987
LeftShoulder1  0.875757 -2.93052 -5.81835
LeftArm  -15.1887 19.1112 -0.670781
LeftForeArm  25.1868 -16.9473 -2.6794
LeftHand  -0.25398 0.0180481 5.50724
RightShoulder  0.281971 -1.34455 5.26908
RightArm  -23.1136 -8.42217 2.23177
RightForeArm  -7.58283 10.2438 3.63212
RightHand  -2.20826 6.31503 -22.0545
LeftUpLeg  7.79058 3.89751 -1.97226
LeftLeg  0.103725 9.9379 -5.53549
LeftFoot  -6.67001 -0.0334399 1.80949
LeftToes  1.06245e-005 4.65856e-005 -8.18504e-006
237
root  -9.92665 40.7799 -7.93135 92.4528 89.3051 93.8144
RightUpLeg  4.94339 -9.88822 -7.7442
RightLeg  8.65581 -9.43615 1.64661
RightFoot  -7.85777 -0.0582832 0.172039
RightToes  0.00048216 0.542163 -0.142577
Spine  -0.0139707 1.12514 -2.68413
Spine1  0.334751 0.894373 2.30117
HEad  15.2819 -2.14245 -1.60549
LeftShoulder1  0.821595 -2.87962 -4.98417
LeftArm  -15.3731 18.3901 -0.509987
LeftForeArm  24.9654 -16.2886 -2.61531
LeftHand  -0.25398 0.0180481 5.50724
RightShoulder  0.22662 -1.66199 4.41631
RightArm  -23.4796 -8.17625 1.98544
RightForeArm  -9.03687 10.3122 3.68422
RightHand  -2.31077 6.6007 -22.4998
LeftUpLeg  7.53324 3.68791 -2.25961
LeftLeg  1.00778 10.6746 -5.2126
LeftFoot  -7.34105 -0.0340907 2.23552
LeftToes  1.06245e-005 4.65856e-005 -8.18504e-006
238
root  -9.90673 40.7198 -7.92823 73.9278 89.2899 75.4587
RightUpLeg  5.01583 -10.1071 -7.90501
RightLeg  9.07004 -8.81105 1.63001
RightFoot  -8.57188 -0.0791305 0.862152
RightToes  0.00048216 0.542163 -0.142577
Spine  0.509579 1.13682 -2.35641
Spine1  0.36087 0.883881 2.36588
HEad  14.7809 -1.89123 -1.49317
LeftShoulder1  0.795981 -2.8014 -4.70728
LeftArm  -15.8652 17.9217 -0.632139
LeftForeArm  24.1079 -15.5778 -2.51468
LeftHand  -0.25398 0.0180481 5.50724
RightShoulder  0.215773 -1.7246 4.20394
RightArm  -23.4288 -7.93045 1.78701
RightForeArm  -8.76319 10.0215 3.64602
RightHand  -2.25717 6.41604 -22.3248
LeftUpLeg  7.17735 3.56196 -2.42075
LeftLeg  2.26611 11.1369 -4.78915
LeftFoot  -8.38184 -0.0088465 2.30614
LeftToes  1.06245e-005 4.65856e-005 -8.18504e-006
239
root  -9.89706 40.6383 -7.92767 58.1099 89.259 59.779
RightUpLeg  4.61125 -10.8844 -7.94682
RightLeg  10.3583 -7.99547 1.26893
RightFoot  -9.485 -0.0823022 1.08365
RightToes  0.00048216 0.542163 -0.142577
Spine  1.11706 1.09707 -2.26723
Spine1  0.486293 0.751179 2.71741
HEad  14.158 -1.50329 -1.47042
LeftShoulder1  0.81344 -2.75695 -5.1177
LeftArm  -15.9899 17.7304 -0.795966
LeftForeArm  23.364 -14.6967 -2.42575
LeftHand  -0.25398 0.0180481 5.50724
RightShoulder  0.228216 -1.64198 4.34988
RightArm  -22.8914 -7.53274 1.71507
RightForeArm  -6.99059 9.37828 3.56775
RightHand  -2.13303 6.07336 -21.7428
LeftUpLeg  6.62229 3.68744 -2.50362
LeftLeg  3.89985 11.3359 -4.2463
LeftFoot  -9.68191 0.0250246 2.29245
LeftToes  1.06245e-005 4.65856e-005 -8.18504e-006
240
root  -9.89431 40.5293 -7.92087 38.4072 88.9453 40.1143
RightUpLeg  3.41372 -12.5726 -7.90814
RightLeg  12.7852 -5.9758 0.39734
RightFoot  -10.5513 -0.0801306 1.35941
RightToes  0.00048216 0.542163 -0.142577
Spine  1.78214 1.15283 -2.49433
Spine1  0.547892 0.660932 3.2021
HEad  13.5514 -1.07362 -1.49384
LeftShoulder1  0.88172 -2.89165 -6.00781
LeftArm  -15.5272 17.864 -0.969301
LeftForeArm  23.4169 -13.5534 -2.37774
LeftHand  -0.25398 0.0180481 5.50724
RightShoulder  0.250995 -1.49588 4.62507
RightArm  -22.0324 -7.10605 1.84491
RightForeArm  -3.70722 8.5221 3.44373
RightHand  -1.85869 5.38428 -20.1864
LeftUpLeg  5.92608 4.32916 -2.49376
LeftLeg  5.73156 11.0573 -3.77153
LeftFoot  -11.3114 0.0659027 1.5441
LeftToes  1.06245e-005 4.65856e-005 -8.18504e-006
241
root  -9.89432 40.388 -7.89705 25.6012 88.1063 27.3293
RightUpLeg  1.22644 -13.4771 -7.62181
RightLeg  16.5877 -3.96961 -1.02036
RightFoot  -11.4576 -0.0743858 2.66957
RightToes  0.00048216 0.542163 -0.142577
Spine  2.75377 1.36238 -2.95498
Spine1  0.285557 0.736968 3.46261
HEad  13.0963 -0.637924 -1.30113
LeftShoulder1  0.954971 -3.06778 -6.84788
LeftArm  -14.8817 18.3046 -1.37535
LeftForeArm  24.0292 -12.1077 -2.33467
LeftHand  -0.25398 0.0180481 5.50724
RightShoulder  0.291645 -1.25447 5.14593
RightArm  -21.1384 -6.72838 2.08981
RightForeArm  0.317536 7.57032 3.27903
RightHand  -1.49282 4.44026 -17.8379
LeftUpLeg  5.26775 5.10885 -2.4734
LeftLeg  7.59081 10.8016 -3.50549
LeftFoot  -13.2557 0.0779567 -0.0479248
LeftToes  1.06245e-005 4.65856e-005 -8.18504e-006
242
root  -9.88905 40.2307 -7.85126 20.7503 86.7462 22.6641
RightUpLeg  -1.94131 -10.5418 -7.22234
RightLeg  22.2414 -5.46196 -2.75971
RightFoot  -11.4092 -0.0771002 4.73531
RightToes  0.00048216 0.542163 -0.142577
Spine  4.26348 1.70613 -3.65148
Spine1  -0.339198 0.972472 3.44025
HEad  12.8005 -0.11421 -0.837056
LeftShoulder1  0.985085 -3.06028 -7.37794
LeftArm  -14.3335 18.8624 -2.10496
LeftForeArm  24.3438 -10.1866 -2.24412
LeftHand  -0.25398 0.0180481 5.50724
RightShoulder  0.35835 -0.89361 6.00664
RightArm  -20.3406 -6.40345 2.30895
RightForeArm  3.83569 6.69271 3.1452
RightHand  -1.23508 3.81588 -15.8218
LeftUpLeg  4.89201 5.66748 -2.66869
LeftLeg  9.24699 11.2882 -3.27781
LeftFoot  -15.0613 0.0466798 -1.37998
LeftToes  1.06245e-005 4.65856e-005 -8.18504e-006
243
root  -9.85267 40.0863 -7.79472 18.3181 85.0855 20.572
RightUpLeg  -5.8885 -6.80204 -7.0251
RightLeg  29.5736 -7.78462 -4.98402
RightFoot  -9.75851 -0.146258 5.88768
RightToes  0.00048216 0.542163 -0.142577
Spine  5.97167 2.13044 -4.42949
Spine1  -0.916835 1.29965 3.3418
HEad  12.5257 0.462933 -0.300792
LeftShoulder1  0.99643 -2.93699 -7.89125
LeftArm  -13.6799 19.286 -2.88831
LeftForeArm  23.6569 -7.66622 -2.13775
LeftHand  -0.25398 0.0180481 5.50724
RightShoulder  0.436174 -0.507823 6.94889
RightArm  -19.5806 -6.2408 2.47953
RightForeArm  6.42724 6.10679 3.0998
RightHand  -1.15693 3.84684 -14.7961
LeftUpLeg  4.80349 6.00945 -3.14426
LeftLeg  10.5835 12.5969 -2.84872
LeftFoot  -16.3293 0.0221464 -1.75362
LeftToes  1.06245e-005 4.65856e-005 -8.18504e-006
